<?xml version="1.0" encoding="UTF-8"?>
<svg width="200" height="200" viewBox="0 0 200 200" fill="none" xmlns="http://www.w3.org/2000/svg">
  <!-- Book -->
  <rect x="40" y="60" width="120" height="100" rx="5" fill="#6366F1" />
  <rect x="45" y="65" width="110" height="90" rx="3" fill="#F9FAFB" />
  <path d="M100 65V155" stroke="#6366F1" stroke-width="2" />
  
  <!-- Pages -->
  <path d="M50 75H95" stroke="#D1D5DB" stroke-width="1" />
  <path d="M50 85H95" stroke="#D1D5DB" stroke-width="1" />
  <path d="M50 95H95" stroke="#D1D5DB" stroke-width="1" />
  <path d="M50 105H95" stroke="#D1D5DB" stroke-width="1" />
  <path d="M50 115H95" stroke="#D1D5DB" stroke-width="1" />
  <path d="M50 125H95" stroke="#D1D5DB" stroke-width="1" />
  <path d="M50 135H95" stroke="#D1D5DB" stroke-width="1" />
  <path d="M50 145H95" stroke="#D1D5DB" stroke-width="1" />
  
  <path d="M105 75H150" stroke="#D1D5DB" stroke-width="1" />
  <path d="M105 85H150" stroke="#D1D5DB" stroke-width="1" />
  <path d="M105 95H150" stroke="#D1D5DB" stroke-width="1" />
  <path d="M105 105H150" stroke="#D1D5DB" stroke-width="1" />
  <path d="M105 115H150" stroke="#D1D5DB" stroke-width="1" />
  <path d="M105 125H150" stroke="#D1D5DB" stroke-width="1" />
  <path d="M105 135H150" stroke="#D1D5DB" stroke-width="1" />
  <path d="M105 145H150" stroke="#D1D5DB" stroke-width="1" />
  
  <!-- Magic sparkles -->
  <path d="M60 40L65 50L70 40L65 30L60 40Z" fill="#FBBF24" />
  <path d="M130 30L135 40L140 30L135 20L130 30Z" fill="#FBBF24" />
  <path d="M160 70L165 80L170 70L165 60L160 70Z" fill="#FBBF24" />
  <path d="M30 100L35 110L40 100L35 90L30 100Z" fill="#FBBF24" />
  <path d="M140 150L145 160L150 150L145 140L140 150Z" fill="#FBBF24" />
  
  <!-- Stars -->
  <circle cx="50" cy="50" r="3" fill="#FBBF24" />
  <circle cx="150" cy="40" r="2" fill="#FBBF24" />
  <circle cx="170" cy="100" r="2" fill="#FBBF24" />
  <circle cx="30" cy="130" r="2" fill="#FBBF24" />
  <circle cx="120" cy="170" r="3" fill="#FBBF24" />
</svg> 