<?xml version="1.0" encoding="UTF-8"?>
<svg width="100" height="100" viewBox="0 0 100 100" fill="none" xmlns="http://www.w3.org/2000/svg">
  <!-- Brain outline -->
  <path d="M30 50C30 35 40 30 50 30C60 30 70 35 70 50C70 65 60 70 50 70C40 70 30 65 30 50Z" fill="#F9A8D4" />
  
  <!-- Left hemisphere -->
  <path d="M30 50C30 35 40 30 50 30V70C40 70 30 65 30 50Z" fill="#F472B6" />
  
  <!-- Brain folds -->
  <path d="M30 40C30 40 35 35 40 35C45 35 45 40 50 40C55 40 55 35 60 35C65 35 70 40 70 40" stroke="#BE185D" stroke-width="2" />
  <path d="M30 50C30 50 35 45 40 45C45 45 45 50 50 50C55 50 55 45 60 45C65 45 70 50 70 50" stroke="#BE185D" stroke-width="2" />
  <path d="M30 60C30 60 35 55 40 55C45 55 45 60 50 60C55 60 55 55 60 55C65 55 70 60 70 60" stroke="#BE185D" stroke-width="2" />
  
  <!-- Brain stem -->
  <path d="M45 70C45 70 45 80 50 80C55 80 55 70 55 70" fill="#F472B6" />
  
  <!-- Neurons -->
  <circle cx="35" cy="40" r="2" fill="#BE185D" />
  <circle cx="45" cy="35" r="2" fill="#BE185D" />
  <circle cx="55" cy="35" r="2" fill="#BE185D" />
  <circle cx="65" cy="40" r="2" fill="#BE185D" />
  <circle cx="35" cy="50" r="2" fill="#BE185D" />
  <circle cx="65" cy="50" r="2" fill="#BE185D" />
  <circle cx="35" cy="60" r="2" fill="#BE185D" />
  <circle cx="45" cy="65" r="2" fill="#BE185D" />
  <circle cx="55" cy="65" r="2" fill="#BE185D" />
  <circle cx="65" cy="60" r="2" fill="#BE185D" />
  
  <!-- Neuron connections -->
  <path d="M35 40L45 35" stroke="#BE185D" stroke-width="1" />
  <path d="M45 35L55 35" stroke="#BE185D" stroke-width="1" />
  <path d="M55 35L65 40" stroke="#BE185D" stroke-width="1" />
  <path d="M35 40L35 50" stroke="#BE185D" stroke-width="1" />
  <path d="M65 40L65 50" stroke="#BE185D" stroke-width="1" />
  <path d="M35 50L35 60" stroke="#BE185D" stroke-width="1" />
  <path d="M65 50L65 60" stroke="#BE185D" stroke-width="1" />
  <path d="M35 60L45 65" stroke="#BE185D" stroke-width="1" />
  <path d="M45 65L55 65" stroke="#BE185D" stroke-width="1" />
  <path d="M55 65L65 60" stroke="#BE185D" stroke-width="1" />
  
  <!-- Thought bubbles -->
  <circle cx="25" cy="25" r="3" fill="#BFDBFE" />
  <circle cx="20" cy="20" r="2" fill="#BFDBFE" />
  <circle cx="15" cy="15" r="1" fill="#BFDBFE" />
  <circle cx="75" cy="25" r="3" fill="#BFDBFE" />
  <circle cx="80" cy="20" r="2" fill="#BFDBFE" />
  <circle cx="85" cy="15" r="1" fill="#BFDBFE" />
</svg> 