<?xml version="1.0" encoding="UTF-8"?>
<svg width="100" height="100" viewBox="0 0 100 100" fill="none" xmlns="http://www.w3.org/2000/svg">
  <!-- Cape -->
  <path d="M30 30C30 30 35 60 50 80C65 60 70 30 70 30C70 30 60 40 50 40C40 40 30 30 30 30Z" fill="#EF4444" />
  
  <!-- Body -->
  <path d="M40 30C40 30 45 50 50 50C55 50 60 30 60 30C60 30 55 40 50 40C45 40 40 30 40 30Z" fill="#3B82F6" />
  
  <!-- Belt -->
  <rect x="40" y="50" width="20" height="5" fill="#FBBF24" />
  
  <!-- Legs -->
  <path d="M40 55C40 55 45 70 45 80H50V55H40Z" fill="#3B82F6" />
  <path d="M60 55C60 55 55 70 55 80H50V55H60Z" fill="#3B82F6" />
  
  <!-- Arms -->
  <path d="M40 30C40 30 30 40 25 50C25 50 30 45 35 45L40 30Z" fill="#3B82F6" />
  <path d="M60 30C60 30 70 40 75 50C75 50 70 45 65 45L60 30Z" fill="#3B82F6" />
  
  <!-- Head -->
  <circle cx="50" cy="20" r="10" fill="#FECDD3" />
  
  <!-- Mask -->
  <path d="M40 20C40 20 45 15 50 15C55 15 60 20 60 20C60 20 55 25 50 25C45 25 40 20 40 20Z" fill="#3B82F6" />
  
  <!-- Hair -->
  <path d="M40 15C40 15 45 5 50 5C55 5 60 15 60 15C60 15 55 10 50 10C45 10 40 15 40 15Z" fill="#FBBF24" />
  
  <!-- Emblem -->
  <path d="M45 35L50 30L55 35L50 40L45 35Z" fill="#FBBF24" />
  
  <!-- Stars -->
  <path d="M20 20L22 25L25 20L22 15L20 20Z" fill="#FBBF24" />
  <path d="M80 20L82 25L85 20L82 15L80 20Z" fill="#FBBF24" />
  <path d="M20 70L22 75L25 70L22 65L20 70Z" fill="#FBBF24" />
  <path d="M80 70L82 75L85 70L82 65L80 70Z" fill="#FBBF24" />
</svg> 